<?xml version="1.0" encoding="utf-8"?>
<!-- Generator: Adobe Illustrator 22.0.1, SVG Export Plug-In . SVG Version: 6.00 Build 0)  -->
<svg version="1.1" id="Layer_1" xmlns="http://www.w3.org/2000/svg" xmlns:xlink="http://www.w3.org/1999/xlink" x="0px" y="0px"
	 viewBox="0 0 290 72" style="enable-background:new 0 0 290 72;" xml:space="preserve">
<style type="text/css">
	.st0{fill:#FFFFFF;}
	.st1{clip-path:url(#SVGID_2_);}
	.st2{fill:url(#SVGID_3_);}
	.st3{fill:url(#SVGID_4_);}
	.st4{fill:url(#SVGID_5_);}
	.st5{fill:url(#SVGID_6_);}
	.st6{fill:url(#SVGID_7_);}
	.st7{fill:url(#SVGID_8_);}
	.st8{fill:url(#SVGID_9_);}
	.st9{fill:url(#SVGID_10_);}
</style>
<g>
	<path class="st0" d="M87.6,35.9c0-4.5,0.8-7.9,2.4-10.3c1.6-2.4,4-3.6,7.3-3.6c1.8,0,3.3,0.3,4.6,1c1.2,0.7,2.3,1.6,3,2.8
		c0.8,1.2,1.3,2.7,1.7,4.4c0.3,1.7,0.5,3.6,0.5,5.7c0,4.5-0.8,7.9-2.4,10.3c-1.6,2.4-4,3.6-7.4,3.6c-1.8,0-3.3-0.3-4.5-1
		s-2.2-1.6-3-2.8c-0.8-1.2-1.3-2.7-1.7-4.4C87.8,40,87.6,38,87.6,35.9z M90.9,35.9c0,1.5,0.1,2.9,0.3,4.2c0.2,1.3,0.5,2.5,1,3.5
		s1.1,1.8,1.9,2.4s1.8,0.9,3.1,0.9c2.2,0,3.8-0.9,4.9-2.7c1-1.8,1.5-4.6,1.5-8.4c0-1.5-0.1-2.9-0.3-4.2c-0.2-1.3-0.5-2.5-1-3.5
		s-1.1-1.8-2-2.4c-0.8-0.6-1.9-0.9-3.1-0.9c-2.2,0-3.8,0.9-4.8,2.7S90.9,32.2,90.9,35.9z"/>
	<path class="st0" d="M112.6,36.9c0-0.2,0-0.5,0-0.9s0-0.8-0.1-1.2c0-0.4-0.1-0.8-0.1-1.2c0-0.4-0.1-0.7-0.1-1h-2.6v-2.5h5.1
		l0.4,2.7h0.2c0.7-0.9,1.6-1.7,2.6-2.3c1.1-0.6,2.4-0.9,3.9-0.9c2.8,0,4.8,0.8,6.2,2.3s2.1,4,2.1,7.4c0,1.6-0.2,3.1-0.7,4.4
		s-1.2,2.4-2,3.3c-0.9,0.9-1.9,1.6-3.2,2.1c-1.2,0.5-2.6,0.7-4.1,0.7c-0.5,0-1,0-1.4-0.1c-0.4,0-0.8-0.1-1.2-0.2
		c-0.3-0.1-0.7-0.1-1-0.3c-0.3-0.1-0.7-0.2-1.1-0.4v7.1h-3v-19H112.6z M121.4,32.5c-0.8,0-1.5,0.1-2.2,0.4s-1.3,0.7-1.8,1.1
		c-0.5,0.5-1,1-1.3,1.5c-0.3,0.6-0.5,1.1-0.6,1.7V46c0.6,0.4,1.2,0.7,1.9,0.9c0.7,0.2,1.6,0.3,2.8,0.3c2.1,0,3.7-0.7,4.9-2
		s1.9-3.3,1.9-5.9c0-2.2-0.4-3.9-1.3-5.1C124.9,33.1,123.4,32.5,121.4,32.5z"/>
	<path class="st0" d="M151.7,47c-0.5,0.4-1,0.8-1.6,1.2c-0.6,0.4-1.3,0.7-2.1,0.9c-0.7,0.3-1.5,0.5-2.3,0.6s-1.6,0.2-2.4,0.2
		c-1.5,0-2.9-0.2-4.1-0.7c-1.2-0.5-2.2-1.2-3-2c-0.8-0.9-1.4-1.9-1.8-3.2c-0.4-1.2-0.6-2.6-0.6-4.2s0.2-3.1,0.7-4.3
		c0.4-1.3,1.1-2.3,1.9-3.2c0.8-0.8,1.9-1.5,3.1-1.9c1.2-0.4,2.6-0.7,4-0.7c1.1,0,2.1,0.1,3.2,0.4c1.1,0.3,2,0.8,2.8,1.6
		c0.8,0.8,1.4,1.9,1.9,3.2c0.4,1.4,0.6,3.2,0.5,5.3H137c0,2.3,0.6,4,1.9,5.2c1.2,1.1,2.9,1.7,5,1.7c0.7,0,1.4-0.1,2.1-0.3
		c0.7-0.2,1.3-0.4,1.9-0.6c0.6-0.2,1.2-0.5,1.6-0.8c0.5-0.3,0.8-0.5,1.1-0.8L151.7,47z M143.6,32.2c-0.8,0-1.6,0.1-2.4,0.3
		c-0.8,0.2-1.4,0.5-2,0.9s-1.1,1-1.4,1.7c-0.4,0.7-0.6,1.5-0.7,2.5h12c-0.1-1.7-0.7-3-1.6-4C146.4,32.7,145.1,32.2,143.6,32.2z"/>
	<path class="st0" d="M157.6,36.9c0-0.2,0-0.5,0-0.9s0-0.8-0.1-1.2c0-0.4-0.1-0.8-0.1-1.2c0-0.4-0.1-0.7-0.1-1h-2.6v-2.5h5.2
		l0.3,3.1h0.2c0.3-0.4,0.6-0.9,1-1.3s0.9-0.8,1.5-1.2c0.6-0.3,1.2-0.6,1.9-0.8s1.4-0.3,2.2-0.3c1.2,0,2.2,0.1,3.1,0.4
		c0.9,0.3,1.7,0.7,2.3,1.4c0.6,0.7,1.1,1.5,1.4,2.7c0.3,1.1,0.5,2.5,0.5,4.3v11.1h-3V39c0-2.1-0.3-3.7-1-4.8s-1.9-1.6-3.8-1.6
		c-0.7,0-1.3,0.1-1.9,0.4c-0.6,0.3-1.2,0.6-1.7,1.1c-0.5,0.4-1,0.9-1.3,1.5c-0.4,0.6-0.7,1.2-0.8,1.8v12.1h-3V36.9H157.6z"/>
	<path class="st0" d="M224.8,36.9c0-0.2,0-0.5,0-0.9s0-0.8-0.1-1.2c0-0.4-0.1-0.8-0.1-1.2c0-0.4-0.1-0.7-0.1-1h-2.6v-2.5h5.2
		l0.3,3.1h0.2c0.3-0.4,0.6-0.9,1-1.3s0.9-0.8,1.5-1.2c0.6-0.3,1.2-0.6,1.9-0.8c0.7-0.2,1.4-0.3,2.2-0.3c1.2,0,2.2,0.1,3.1,0.4
		s1.7,0.7,2.3,1.4c0.6,0.7,1.1,1.5,1.4,2.7c0.3,1.1,0.5,2.5,0.5,4.3v11.1h-3V39c0-2.1-0.3-3.7-1-4.8c-0.7-1.1-1.9-1.6-3.8-1.6
		c-0.7,0-1.3,0.1-1.9,0.4s-1.2,0.6-1.7,1.1c-0.5,0.4-1,0.9-1.3,1.5c-0.4,0.6-0.7,1.2-0.8,1.8v12.1h-3V36.9H224.8z"/>
	<path class="st0" d="M264.1,47c-0.5,0.4-1,0.8-1.6,1.2c-0.6,0.4-1.3,0.7-2.1,0.9c-0.7,0.3-1.5,0.5-2.3,0.6s-1.6,0.2-2.4,0.2
		c-1.5,0-2.9-0.2-4.1-0.7s-2.2-1.2-3-2c-0.8-0.9-1.4-1.9-1.8-3.2c-0.4-1.2-0.6-2.6-0.6-4.2s0.2-3.1,0.7-4.3c0.4-1.3,1.1-2.3,1.9-3.2
		c0.8-0.8,1.9-1.5,3.1-1.9s2.6-0.7,4-0.7c1.1,0,2.1,0.1,3.2,0.4c1.1,0.3,2,0.8,2.8,1.6c0.8,0.8,1.4,1.9,1.9,3.2
		c0.4,1.4,0.6,3.2,0.5,5.3h-14.9c0,2.3,0.6,4,1.9,5.2c1.2,1.1,2.9,1.7,5,1.7c0.7,0,1.4-0.1,2.1-0.3c0.7-0.2,1.3-0.4,1.9-0.6
		s1.2-0.5,1.6-0.8c0.5-0.3,0.8-0.5,1.1-0.8L264.1,47z M256,32.2c-0.8,0-1.6,0.1-2.4,0.3c-0.8,0.2-1.4,0.5-2,0.9s-1.1,1-1.4,1.7
		c-0.4,0.7-0.6,1.5-0.7,2.5h12c-0.1-1.7-0.7-3-1.6-4C258.8,32.7,257.5,32.2,256,32.2z"/>
	<g>
		<path class="st0" d="M286.4,46.9c-0.1-0.3-0.1-0.6-0.2-1s-0.1-0.8-0.1-1.1c0-0.4-0.1-0.8-0.1-1.1s0-0.6,0-0.9V22.4h-3v8.1
			c-0.4-0.1-0.7-0.2-1.1-0.3c-0.3-0.1-0.7-0.2-1-0.2c-0.4-0.1-0.8-0.1-1.2-0.1c-0.4,0-0.9,0-1.4,0c-1.5,0-2.8,0.2-4,0.7
			c-1.2,0.4-2.2,1.1-3.1,1.9s-1.5,1.9-2,3.1s-0.7,2.7-0.7,4.3c0,3.4,0.7,6,2.1,7.6s3.5,2.4,6.4,2.4c1.5,0,2.8-0.3,3.9-1
			s2-1.5,2.5-2.4h0.2l0.4,3h5.2V47L286.4,46.9L286.4,46.9z M282.9,42.5c-0.3,1.6-0.9,2.8-1.8,3.6c-0.9,0.8-2.1,1.2-3.7,1.2
			c-1.1,0-2-0.2-2.7-0.6s-1.3-0.9-1.8-1.6c-0.4-0.7-0.8-1.5-1-2.4s-0.3-1.9-0.3-3c0-2.6,0.6-4.5,1.8-5.7s2.8-1.8,4.8-1.8
			c1.2,0,2.1,0.1,2.8,0.3c0.7,0.2,1.3,0.5,1.9,0.8L282.9,42.5L282.9,42.5z"/>
	</g>
	<path class="st0" d="M204.2,49.4v-2.6h6.7V32.7h-6.7v-2.6h9.8v16.7h6.6v2.6H204.2z M214.9,25l-2.5-2.5l-2.5,2.5l2.5,2.5L214.9,25z"
		/>
	<path class="st0" d="M196.2,22.4l-6.4,10.3l-6.4-10.3h-3v27h3.1V28.7l5.1,7.9c0.6,0.9,1.9,0.9,2.4,0l5.1-7.9v20.7h3.1v-27
		C199.2,22.4,196.2,22.4,196.2,22.4z"/>
</g>
<g>
	<g>
		<g>
			<defs>
				<path id="SVGID_1_" d="M68.9,32.3L50.3,21.6L39.6,3.1c-1.6-2.8-5.7-2.8-7.3,0L21.6,21.6L3.1,32.3c-2.8,1.6-2.8,5.7,0,7.3
					l18.5,10.7l10.7,18.5c1.6,2.8,5.7,2.8,7.3,0l10.7-18.5l18.5-10.7C71.7,38,71.7,34,68.9,32.3z M58.6,36L58.6,36L36,58.6l0,0l0,0
					l0,0l0,0L13.4,36l0,0l0,0l0,0l0,0L36,13.4l0,0l0,0l0,0l0,0L58.6,36L58.6,36L58.6,36L58.6,36z M49.6,36L49.6,36L36,49.6l0,0
					L22.4,36l0,0L36,22.4l0,0L49.6,36z"/>
			</defs>
			<clipPath id="SVGID_2_">
				<use xlink:href="#SVGID_1_"  style="overflow:visible;"/>
			</clipPath>
			<g class="st1">
				
					<image style="overflow:visible;enable-background:new    ;" width="102" height="102" xlink:href="98E76E5FE578F235.png"  transform="matrix(1 0 0 1 -15 -15)">
				</image>
			</g>
		</g>
	</g>
	<g>
		
			<linearGradient id="SVGID_3_" gradientUnits="userSpaceOnUse" x1="21.6473" y1="55.5" x2="58.6473" y2="55.5" gradientTransform="matrix(1 0 0 -1 0 74)">
			<stop  offset="0" style="stop-color:#E6AF7B"/>
			<stop  offset="0.4239" style="stop-color:#F3C07A"/>
			<stop  offset="0.7983" style="stop-color:#C5A48A"/>
			<stop  offset="1" style="stop-color:#87A9A0"/>
		</linearGradient>
		<path class="st2" d="M32.3,3.1L21.6,21.6L36,13.4l0,0l0,0l0,0l0,0L58.6,36l0,0l-19-32.9C38,0.3,34,0.3,32.3,3.1z"/>
		
			<linearGradient id="SVGID_4_" gradientUnits="userSpaceOnUse" x1="53.5" y1="52.3573" x2="53.5" y2="15.3573" gradientTransform="matrix(1 0 0 -1 0 74)">
			<stop  offset="0" style="stop-color:#BACC9B"/>
			<stop  offset="0.2943" style="stop-color:#9FCFA1"/>
			<stop  offset="0.5225" style="stop-color:#81BEA5"/>
			<stop  offset="0.7939" style="stop-color:#7EA3A3"/>
			<stop  offset="1" style="stop-color:#8D7997"/>
		</linearGradient>
		<path class="st3" d="M50.4,21.6L58.6,36l0,0l0,0l0,0l0,0L36,58.6l0,0l32.9-19c2.8-1.6,2.8-5.7,0-7.3L50.4,21.6z"/>
		
			<linearGradient id="SVGID_5_" gradientUnits="userSpaceOnUse" x1="18.5" y1="23.6504" x2="18.5" y2="60.6504" gradientTransform="matrix(1 0 0 -1 0 74)">
			<stop  offset="0" style="stop-color:#A85684"/>
			<stop  offset="0.2738" style="stop-color:#C35074"/>
			<stop  offset="0.5296" style="stop-color:#E27D69"/>
			<stop  offset="1" style="stop-color:#EDA472"/>
			<stop  offset="1" style="stop-color:#C9BC8F"/>
		</linearGradient>
		<path class="st4" d="M13.4,36L36,13.4l0,0l-32.9,19c-2.8,1.6-2.8,5.7,0,7.3l18.5,10.7L13.4,36L13.4,36L13.4,36L13.4,36L13.4,36z"
			/>
		
			<linearGradient id="SVGID_6_" gradientUnits="userSpaceOnUse" x1="13.3597" y1="20.5" x2="50.3597" y2="20.5" gradientTransform="matrix(1 0 0 -1 0 74)">
			<stop  offset="4.318467e-04" style="stop-color:#F6796C"/>
			<stop  offset="0.2524" style="stop-color:#C5707C"/>
			<stop  offset="0.491" style="stop-color:#927393"/>
			<stop  offset="0.7803" style="stop-color:#757FA3"/>
			<stop  offset="1" style="stop-color:#60A4AF"/>
		</linearGradient>
		<path class="st5" d="M36,58.6L36,58.6L36,58.6L36,58.6L36,58.6L13.4,36l0,0l19,32.9c1.6,2.8,5.7,2.8,7.3,0l10.7-18.5L36,58.6z"/>
		
			<linearGradient id="SVGID_7_" gradientUnits="userSpaceOnUse" x1="32.6" y1="27.8" x2="46.1768" y2="41.3768" gradientTransform="matrix(1 0 0 -1 0 74)">
			<stop  offset="0" style="stop-color:#757FA3"/>
			<stop  offset="1" style="stop-color:#60A4AF"/>
		</linearGradient>
		<polygon class="st6" points="36,36 36,49.6 49.6,36 		"/>
		
			<linearGradient id="SVGID_8_" gradientUnits="userSpaceOnUse" x1="-694.7885" y1="840.3885" x2="-708.3653" y2="826.8117" gradientTransform="matrix(0 1 1 0 -800.9885 740.9885)">
			<stop  offset="0" style="stop-color:#C5707C"/>
			<stop  offset="1" style="stop-color:#ED986C"/>
		</linearGradient>
		<polygon class="st7" points="36,36 22.4,36 36,49.6 		"/>
		
			<linearGradient id="SVGID_9_" gradientUnits="userSpaceOnUse" x1="-1493.777" y1="99.4" x2="-1507.3539" y2="85.8232" gradientTransform="matrix(-1 0 0 1 -1467.9771 -60)">
			<stop  offset="0" style="stop-color:#F3C07A"/>
			<stop  offset="1" style="stop-color:#ED986C"/>
		</linearGradient>
		<polygon class="st8" points="36,36 36,22.4 22.4,36 		"/>
		
			<linearGradient id="SVGID_10_" gradientUnits="userSpaceOnUse" x1="-752.7885" y1="-699.5885" x2="-766.3654" y2="-713.1653" gradientTransform="matrix(0 -1 -1 0 -666.9885 -726.9885)">
			<stop  offset="0" style="stop-color:#5CB6A5"/>
			<stop  offset="0.9982" style="stop-color:#99CC99"/>
		</linearGradient>
		<polygon class="st9" points="36,36 49.6,36 36,22.4 		"/>
	</g>
</g>
</svg>
